<svg width="238" height="250" viewBox="0 0 238 250" fill="none" xmlns="http://www.w3.org/2000/svg">
<g clip-path="url(#clip0_17_719)">
<path d="M92.0665 250C142.913 250 184.133 242.69 184.133 233.673C184.133 224.656 142.913 217.346 92.0665 217.346C41.2196 217.346 0 224.656 0 233.673C0 242.69 41.2196 250 92.0665 250Z" fill="#5250A6"/>
<path d="M148.023 180.647C197.716 180.647 238 140.208 238 90.3236C238 40.4392 197.716 0 148.023 0C98.3294 0 58.0452 40.4392 58.0452 90.3236C58.0452 140.208 98.3294 180.647 148.023 180.647Z" fill="#7874F2"/>
<path opacity="0.4" d="M148.023 164.888C189.046 164.888 222.302 131.505 222.302 90.3235C222.302 49.1424 189.046 15.7585 148.023 15.7585C106.999 15.7585 73.7433 49.1424 73.7433 90.3235C73.7433 131.505 106.999 164.888 148.023 164.888Z" fill="#081B28"/>
<path opacity="0.3" d="M148.023 151.436C181.645 151.436 208.901 124.075 208.901 90.3235C208.901 56.5719 181.645 29.2109 148.023 29.2109C114.4 29.2109 87.1442 56.5719 87.1442 90.3235C87.1442 124.075 114.4 151.436 148.023 151.436Z" fill="#081B28"/>
<path opacity="0.15" d="M148.023 134.14C172.129 134.14 191.671 114.523 191.671 90.3236C191.671 66.1244 172.129 46.5071 148.023 46.5071C123.916 46.5071 104.374 66.1244 104.374 90.3236C104.374 114.523 123.916 134.14 148.023 134.14Z" fill="#081B28"/>
<path d="M58.8421 98.407C58.8421 98.407 51.768 118.396 54.9121 125.497C58.0561 132.598 63.0341 139.436 63.0341 139.436C63.0341 139.436 61.2001 99.722 58.8421 98.407Z" fill="#5250A6"/>
<path opacity="0.1" d="M58.8421 98.407C58.8421 98.407 51.768 118.396 54.9121 125.497C58.0561 132.598 63.0341 139.436 63.0341 139.436C63.0341 139.436 61.2001 99.722 58.8421 98.407Z" fill="black"/>
<path d="M63.82 144.696C63.82 144.696 63.296 149.694 63.034 149.957C62.772 150.22 63.296 150.746 63.034 151.535C62.772 152.324 62.51 153.376 63.034 153.639C63.558 153.902 60.152 177.047 60.152 177.047C60.152 177.047 51.768 188.093 55.174 205.451L56.222 223.073C56.222 223.073 64.344 223.599 64.344 220.706C64.344 220.706 63.82 217.287 63.82 215.709C63.82 214.131 65.13 214.131 64.344 213.342C63.558 212.553 63.558 212.027 63.558 212.027C63.558 212.027 64.868 210.975 64.606 210.712C64.344 210.449 66.9641 191.775 66.9641 191.775C66.9641 191.775 69.8461 188.882 69.8461 187.304V185.726C69.8461 185.726 71.1561 182.307 71.1561 182.044C71.1561 181.781 78.2301 165.737 78.2301 165.737L81.1121 177.31L84.2561 193.879C84.2561 193.879 85.8281 208.871 88.9721 214.657C88.9721 214.657 94.4742 233.593 94.4742 233.067C94.4742 232.541 103.644 231.226 103.382 228.859C103.12 226.492 97.8802 193.353 97.8802 193.353L99.1902 144.17L63.82 144.696Z" fill="#2E2E2E"/>
<path d="M56.746 221.758C56.746 221.758 49.672 235.698 54.388 236.224C59.104 236.75 60.938 236.75 63.034 234.646C64.1799 233.495 66.5004 231.952 68.3687 230.789C69.4757 230.111 70.37 229.134 70.949 227.969C71.528 226.804 71.7682 225.499 71.6422 224.204C71.504 222.917 71.025 221.857 69.846 221.758C66.702 221.495 63.034 218.602 63.034 218.602L56.746 221.758Z" fill="#2E2E2E"/>
<path d="M95.7842 232.015C95.7842 232.015 88.7102 245.955 93.4262 246.481C98.1422 247.007 99.9762 247.007 102.072 244.903C103.218 243.753 105.539 242.209 107.407 241.046C108.514 240.369 109.408 239.391 109.987 238.226C110.566 237.062 110.806 235.757 110.68 234.461C110.542 233.174 110.063 232.114 108.884 232.015C105.74 231.752 102.072 228.859 102.072 228.859L95.7842 232.015Z" fill="#2E2E2E"/>
<path d="M88.3076 75.5952C94.3902 75.5952 99.3211 70.6453 99.3211 64.5393C99.3211 58.4333 94.3902 53.4834 88.3076 53.4834C82.225 53.4834 77.2941 58.4333 77.2941 64.5393C77.2941 70.6453 82.225 75.5952 88.3076 75.5952Z" fill="#FFB8B8"/>
<path d="M81.2276 68.1721C81.2276 68.1721 73.3608 82.7027 72.7314 82.7027C72.1021 82.7027 86.8917 87.441 86.8917 87.441C86.8917 87.441 90.9825 73.5421 91.6118 72.2786L81.2276 68.1721Z" fill="#FFB8B8"/>
<path d="M93.2952 84.073C93.2952 84.073 77.5751 75.3937 76.0031 75.6567C74.4311 75.9197 57.663 90.6482 57.925 96.6974C58.187 102.747 60.283 112.741 60.283 112.741C60.283 112.741 61.069 140.62 62.641 140.883C64.2131 141.146 62.379 145.88 62.9031 145.88C63.4271 145.88 99.5832 145.88 99.8452 145.091C100.107 144.302 93.2952 84.073 93.2952 84.073Z" fill="#5250A6"/>
<path d="M102.072 146.538C102.072 146.538 107.05 161.792 102.858 161.266C98.6662 160.74 96.8322 148.116 96.8322 148.116L102.072 146.538Z" fill="#FFB8B8"/>
<path d="M88.7101 83.1524C88.7101 83.1524 79.0161 85.2565 80.5881 98.4069C82.1601 111.557 85.0421 124.708 85.0421 124.708L94.7361 146.012L95.7841 149.957L102.858 148.116L97.6182 117.607C97.6182 117.607 95.7841 84.9934 93.4261 83.9414C91.9392 83.3051 90.3223 83.0345 88.7101 83.1524Z" fill="#5250A6"/>
<path opacity="0.1" d="M82.8151 124.313L94.8673 145.88L84.7131 123.155L82.8151 124.313Z" fill="black"/>
<path d="M99.2724 61.2839L99.3088 60.4391L100.983 60.8574C100.965 60.5861 100.889 60.3221 100.759 60.0834C100.63 59.8446 100.45 59.637 100.233 59.4748L102.016 59.3747C100.52 57.2399 98.6078 55.4318 96.3958 54.0596C94.1838 52.6873 91.7177 51.7793 89.1464 51.3904C85.2889 50.8292 80.9937 51.6414 78.3485 54.5152C77.0655 55.9091 76.2593 57.6818 75.6858 59.4903C74.6296 62.8211 74.4144 66.7916 76.6168 69.4991C78.8552 72.2508 82.7651 72.7898 86.2878 73.1303C87.5273 73.2502 88.8262 73.3617 89.9748 72.8789C90.1027 71.5564 89.934 70.2219 89.4812 68.9733C89.2927 68.5868 89.2026 68.1594 89.219 67.7293C89.3756 66.6773 90.7735 66.4123 91.8236 66.5544C92.8737 66.6965 94.1364 66.914 94.8264 66.1067C95.3017 65.5507 95.2737 64.7409 95.3366 64.0109C95.5081 62.0236 99.2544 61.7005 99.2724 61.2839Z" fill="#2E2E2E"/>
</g>
<defs>
<clipPath id="clip0_17_719">
<rect width="238" height="250" fill="white"/>
</clipPath>
</defs>
</svg>
