<svg width="180" height="175" viewBox="0 0 180 175" fill="none" xmlns="http://www.w3.org/2000/svg">
<g clip-path="url(#clip0_169_1018)">
<path d="M114.271 39.3569H65.7692C64.6639 39.3583 63.6043 39.7962 62.8227 40.5746C62.0412 41.353 61.6015 42.4084 61.6002 43.5093V150.875L61.0443 151.044L49.1459 154.673C48.582 154.844 47.973 154.786 47.4524 154.51C46.9319 154.234 46.5424 153.764 46.3695 153.203L10.9773 38.0586C10.805 37.497 10.8637 36.8902 11.1405 36.3716C11.4172 35.8531 11.8894 35.4652 12.4531 35.2932L30.7885 29.7013L83.9433 13.4962L102.279 7.90433C102.558 7.8188 102.851 7.78891 103.141 7.81638C103.432 7.84384 103.714 7.92813 103.972 8.0644C104.23 8.20067 104.459 8.38626 104.644 8.61055C104.83 8.83484 104.97 9.09342 105.055 9.37149L114.102 38.8033L114.271 39.3569Z" fill="#B9B8E7"/>
<path d="M124.855 38.8033L113.952 3.33127C113.77 2.74024 113.474 2.1906 113.079 1.71377C112.684 1.23694 112.199 0.842253 111.651 0.55227C111.103 0.262287 110.503 0.0826855 109.885 0.0237365C109.268 -0.0352125 108.645 0.0276457 108.051 0.208713L82.2729 8.06771L29.1209 24.2757L3.34253 32.1374C2.145 32.5037 1.1423 33.3282 0.554504 34.43C-0.0332872 35.5319 -0.158142 36.821 0.20735 38.0144L37.4727 159.243C37.7696 160.207 38.3687 161.05 39.1821 161.649C39.9955 162.249 40.9803 162.572 41.992 162.573C42.4603 162.574 42.9259 162.504 43.3733 162.366L61.0443 156.979L61.6002 156.807V156.229L61.0443 156.398L43.2093 161.837C42.1523 162.158 41.0106 162.048 40.0347 161.532C39.0588 161.016 38.3284 160.135 38.0036 159.083L0.741097 37.8511C0.580198 37.3298 0.52412 36.782 0.576073 36.2391C0.628026 35.6962 0.786985 35.1688 1.04386 34.6872C1.30073 34.2056 1.65047 33.7792 2.07304 33.4324C2.49561 33.0856 2.98271 32.8252 3.50646 32.6662L29.2848 24.8044L82.4369 8.59921L108.215 0.737449C108.613 0.616699 109.026 0.555131 109.441 0.554745C110.332 0.556739 111.2 0.842961 111.916 1.37149C112.632 1.90002 113.16 2.64308 113.421 3.49183L124.274 38.8033L124.447 39.357H125.025L124.855 38.8033Z" fill="#7874F2"/>
<path d="M34.0972 35.3837C33.5615 35.3833 33.04 35.2119 32.6093 34.8947C32.1786 34.5776 31.8612 34.1312 31.7038 33.6212L28.1239 21.9748C28.0277 21.662 27.9943 21.3333 28.0257 21.0076C28.057 20.6819 28.1525 20.3656 28.3066 20.0766C28.4607 19.7877 28.6705 19.5318 28.9239 19.3236C29.1773 19.1154 29.4694 18.959 29.7835 18.8633L78.6829 3.95255C79.3173 3.75975 80.0025 3.8255 80.5882 4.13538C81.174 4.44525 81.6123 4.97393 81.8071 5.60537L85.387 17.2519C85.5804 17.8837 85.5144 18.5662 85.2033 19.1495C84.8922 19.7329 84.3614 20.1695 83.7275 20.3636L34.828 35.2743C34.5912 35.3467 34.3449 35.3836 34.0972 35.3837Z" fill="#7874F2"/>
<path d="M52.8501 12.4445C55.92 12.4445 58.4087 9.9657 58.4087 6.908C58.4087 3.85031 55.92 1.37155 52.8501 1.37155C49.7801 1.37155 47.2914 3.85031 47.2914 6.908C47.2914 9.9657 49.7801 12.4445 52.8501 12.4445Z" fill="#7874F2"/>
<path d="M52.8501 10.4139C54.7941 10.4139 56.3701 8.84424 56.3701 6.90801C56.3701 4.97178 54.7941 3.40216 52.8501 3.40216C50.9061 3.40216 49.3302 4.97178 49.3302 6.90801C49.3302 8.84424 50.9061 10.4139 52.8501 10.4139Z" fill="#B9B8E7"/>
<path d="M167.493 161.159H73.5514C72.9251 161.158 72.3246 160.91 71.8817 160.469C71.4388 160.028 71.1897 159.43 71.189 158.806V46.6927C71.1897 46.0689 71.4388 45.4708 71.8817 45.0297C72.3246 44.5885 72.9251 44.3404 73.5514 44.3397H167.493C168.119 44.3404 168.72 44.5886 169.163 45.0297C169.606 45.4708 169.855 46.0689 169.855 46.6927V158.806C169.855 159.43 169.606 160.028 169.163 160.469C168.72 160.91 168.119 161.158 167.493 161.159Z" fill="#B9B8E7"/>
<path d="M124.274 38.8033H65.7692C64.5166 38.805 63.3159 39.3014 62.4302 40.1836C61.5445 41.0657 61.0461 42.2617 61.0443 43.5093V156.398L61.6002 156.229V43.5093C61.6015 42.4084 62.0412 41.353 62.8227 40.5746C63.6043 39.7962 64.6639 39.3583 65.7692 39.3569H124.447L124.274 38.8033ZM175.275 38.8033H65.7692C64.5166 38.805 63.3159 39.3014 62.4302 40.1836C61.5445 41.0657 61.0461 42.2617 61.0443 43.5093V170.294C61.0461 171.542 61.5445 172.738 62.4302 173.62C63.3159 174.502 64.5166 174.998 65.7692 175H175.275C176.528 174.998 177.728 174.502 178.614 173.62C179.5 172.738 179.998 171.542 180 170.294V43.5093C179.998 42.2617 179.5 41.0657 178.614 40.1836C177.728 39.3014 176.528 38.805 175.275 38.8033ZM179.444 170.294C179.443 171.395 179.003 172.45 178.222 173.229C177.44 174.007 176.38 174.445 175.275 174.446H65.7692C64.6639 174.445 63.6043 174.007 62.8227 173.229C62.0412 172.45 61.6015 171.395 61.6002 170.294V43.5093C61.6015 42.4084 62.0412 41.353 62.8227 40.5746C63.6043 39.7962 64.6639 39.3583 65.7692 39.3569H175.275C176.38 39.3583 177.44 39.7962 178.222 40.5746C179.003 41.353 179.443 42.4084 179.444 43.5093V170.294Z" fill="#7874F2"/>
<path d="M146.092 50.9835H94.9523C94.2891 50.9827 93.6533 50.72 93.1844 50.2529C92.7154 49.7859 92.4517 49.1526 92.4509 48.4921V36.3119C92.4517 35.6513 92.7155 35.0181 93.1844 34.551C93.6533 34.0839 94.2891 33.8212 94.9523 33.8205H146.092C146.755 33.8212 147.391 34.0839 147.86 34.551C148.329 35.0181 148.593 35.6513 148.594 36.3119V48.4921C148.593 49.1526 148.329 49.7859 147.86 50.2529C147.391 50.72 146.755 50.9827 146.092 50.9835Z" fill="#7874F2"/>
<path d="M120.522 34.6509C123.592 34.6509 126.081 32.1722 126.081 29.1145C126.081 26.0568 123.592 23.578 120.522 23.578C117.452 23.578 114.964 26.0568 114.964 29.1145C114.964 32.1722 117.452 34.6509 120.522 34.6509Z" fill="#7874F2"/>
<path d="M120.522 32.4867C122.392 32.4867 123.908 30.9769 123.908 29.1145C123.908 27.2521 122.392 25.7423 120.522 25.7423C118.652 25.7423 117.136 27.2521 117.136 29.1145C117.136 30.9769 118.652 32.4867 120.522 32.4867Z" fill="#B9B8E7"/>
</g>
<defs>
<clipPath id="clip0_169_1018">
<rect width="180" height="175" fill="white"/>
</clipPath>
</defs>
</svg>
