<svg width="39" height="39" viewBox="0 0 39 39" fill="none" xmlns="http://www.w3.org/2000/svg">
<path d="M32.8125 3.5H28.8125V3.75C28.3125 3.58333 27.875 3.5 27.5 3.5H8.8125C8.10417 3.5 7.48958 3.76042 6.96875 4.28125C6.44792 4.80208 6.1875 5.4375 6.1875 6.1875V10.1875H4.8125C3.9375 10.1875 3.5 10.625 3.5 11.5C3.5 12.375 3.9375 12.8125 4.8125 12.8125H6.1875V18.1875H4.8125C3.9375 18.1875 3.5 18.625 3.5 19.5C3.5 20.375 3.9375 20.8125 4.8125 20.8125H6.1875V26.1875H4.8125C3.9375 26.1875 3.5 26.625 3.5 27.5C3.5 28.375 3.9375 28.8125 4.8125 28.8125H6.1875V32.8125C6.1875 33.5625 6.44792 34.1979 6.96875 34.7188C7.48958 35.2396 8.10417 35.5 8.8125 35.5H27.5C28.625 35.5 29.5729 35.1146 30.3438 34.3438C31.1146 33.5729 31.5 32.625 31.5 31.5V26.1875C32.625 26.1875 33.5729 25.8021 34.3438 25.0312C35.1146 24.2604 35.5 23.3125 35.5 22.1875V16.8125H35.25C35.4167 16.3125 35.5 15.875 35.5 15.5V10.1875H35.25C35.4167 9.60417 35.5 9.14583 35.5 8.8125V6.1875C35.5 5.4375 35.2396 4.80208 34.7188 4.28125C34.1979 3.76042 33.5625 3.5 32.8125 3.5ZM31.5 6.1875H32.8125V8.8125C32.8125 9.72917 32.375 10.1875 31.5 10.1875V6.1875ZM31.5 12.8125C31.875 12.8125 32.3125 12.7292 32.8125 12.5625V15.5C32.8125 16.375 32.375 16.8125 31.5 16.8125V12.8125ZM28.8125 31.5C28.8125 32.375 28.375 32.8125 27.5 32.8125H8.8125V28.8125H10.1875C11.0625 28.8125 11.5 28.375 11.5 27.5C11.5 26.625 11.0625 26.1875 10.1875 26.1875H8.8125V20.8125H10.1875C11.0625 20.8125 11.5 20.375 11.5 19.5C11.5 18.625 11.0625 18.1875 10.1875 18.1875H8.8125V12.8125H10.1875C11.0625 12.8125 11.5 12.375 11.5 11.5C11.5 10.625 11.0625 10.1875 10.1875 10.1875H8.8125V6.1875H27.5C28.375 6.1875 28.8125 6.625 28.8125 7.5V31.5ZM31.5 23.5V19.5C31.875 19.5 32.3125 19.4167 32.8125 19.25V22.1875C32.8125 23.0625 32.375 23.5 31.5 23.5Z" fill="#FBFBFB"/>
</svg>
